<?xml version="1.0" encoding="UTF-8"?>
<svg width="121px" height="121px" viewBox="0 0 121 121" version="1.1" xmlns="http://www.w3.org/2000/svg" xmlns:xlink="http://www.w3.org/1999/xlink">
    <!-- Generator: sketchtool 61.2 (101010) - https://sketch.com -->
    <title>815F0C60-8251-465E-88DC-C2405E68BF19</title>
    <desc>Created with sketchtool.</desc>
    <g id="Design" stroke="none" stroke-width="1" fill="none" fill-rule="evenodd">
        <g id="The-Drop" transform="translate(-94.000000, -2095.000000)">
            <g id="Spillagency-drop" transform="translate(95.000000, 2096.000000)">
                <g id="Group-24" transform="translate(60.000000, 60.500000) rotate(-5.000000) translate(-60.000000, -60.500000) translate(38.000000, 34.000000)" stroke="#000000" stroke-width="0.7">
                    <path d="M24.7113258,0 C24.7113258,0 7.68309036,8.91051793 2.22469908,21.5794582 C-3.2336922,34.2483984 0.798153034,50.513915 20.5196889,52.0132378 C40.2412248,53.5125605 46.2970981,36.3591392 43.2587402,24.7804111 C39.2130001,9.40729504 24.7113258,0 24.7113258,0 Z" id="Path" fill-rule="nonzero"></path>
                    <g id="Group-7" transform="translate(26.631579, 4.631579)" stroke-linecap="round">
                        <path d="M-2.66178548e-14,-1.03776636e-13 C-2.66178548e-14,-1.03776636e-13 4.06819551,4.44391522 5.4559022,6.03000714 C6.84360889,7.61609907 8.6042335,10.1905216 8.6042335,10.1905216" id="Path"></path>
                        <path d="M10.1185063,12.7792332 C10.1185063,12.7792332 11.4316294,15.1417004 12.6046258,17.2755418" id="Path"></path>
                    </g>
                    <path d="M11.5789474,33.5789474 L26.6315789,35.7628876 L26.6315789,35.7628876 C26.4131399,37.7832728 25.9631556,39.8517625 25.5393839,40.4458519 C24.9401638,41.3570696 23.9276657,41.8215931 22.9181159,41.6484622 C21.6205883,41.4536393 21.0548312,40.4458519 20.8101796,39.5390838 C20.633244,38.8992952 20.5917406,37.6726327 20.9543493,34.9475178" id="Path" stroke-linecap="round"></path>
                    <g id="Group-9" transform="translate(9.263158, 24.315789)" stroke-linecap="round">
                        <line x1="0.561657538" y1="-5.59458912e-14" x2="3.95116298" y2="4.5798841" id="Path"></line>
                        <line x1="4.51282051" y1="0.553274589" x2="2.63274782e-14" y2="4.02660951" id="Path"></line>
                    </g>
                    <g id="Group-8" transform="translate(25.473684, 25.473684)" stroke-linecap="round">
                        <line x1="0.561657538" y1="-5.9236826e-14" x2="3.95116298" y2="4.5798841" id="Path"></line>
                        <line x1="4.51282051" y1="0.553274589" x2="1.31637391e-14" y2="4.02660951" id="Path"></line>
                    </g>
                </g>
                <g id="Group-25">
                    <g id="Group-47">
                        <path d="M24.9728125,33.8539375 C25.2065625,33.9083125 25.4309375,33.9039375 25.6465625,33.8414375 C25.8615625,33.7795625 26.0696875,33.6683125 26.2709375,33.5083125 C26.4715625,33.3476875 26.6615625,33.1564375 26.8415625,32.9345625 C26.9440625,32.8076875 27.0378125,32.6545625 27.1221875,32.4751875 C27.2071875,32.2964375 27.2621875,32.1101875 27.2871875,31.9164375 C27.3128125,31.7233125 27.2978125,31.5333125 27.2421875,31.3458125 C27.1871875,31.1589375 27.0715625,30.9939375 26.8946875,30.8508125 C26.7584375,30.7408125 26.6159375,30.6758125 26.4665625,30.6564375 C26.3171875,30.6370625 26.1690625,30.6489375 26.0221875,30.6908125 C25.8753125,30.7339375 25.7328125,30.7964375 25.5940625,30.8795625 C25.4553125,30.9626875 25.3265625,31.0501875 25.2078125,31.1414375 L24.0678125,32.0083125 C23.9184375,32.1201875 23.7615625,32.2208125 23.5990625,32.3101875 C23.4365625,32.4001875 23.2690625,32.4583125 23.0978125,32.4845625 C22.9265625,32.5114375 22.7503125,32.5020625 22.5690625,32.4570625 C22.3884375,32.4114375 22.2021875,32.3120625 22.0121875,32.1583125 C21.8940625,32.0626875 21.7740625,31.9283125 21.6521875,31.7545625 C21.5296875,31.5808125 21.4490625,31.3745625 21.4090625,31.1358125 C21.3690625,30.8976875 21.3890625,30.6301875 21.4671875,30.3339375 C21.5459375,30.0370625 21.7221875,29.7183125 21.9978125,29.3783125 C22.1921875,29.1383125 22.4090625,28.9345625 22.6484375,28.7683125 C22.8884375,28.6020625 23.1371875,28.4883125 23.3965625,28.4276875 C23.6553125,28.3670625 23.9184375,28.3639375 24.1853125,28.4189375 C24.4528125,28.4733125 24.7109375,28.6014375 24.9603125,28.8033125 L24.5865625,29.2658125 C24.3928125,29.1245625 24.1971875,29.0358125 23.9978125,28.9983125 C23.7990625,28.9614375 23.6046875,28.9658125 23.4146875,29.0101875 C23.2246875,29.0558125 23.0421875,29.1370625 22.8678125,29.2551875 C22.6940625,29.3733125 22.5371875,29.5183125 22.3978125,29.6908125 C22.2690625,29.8495625 22.1621875,30.0164375 22.0771875,30.1914375 C21.9921875,30.3658125 21.9421875,30.5395625 21.9271875,30.7108125 C21.9121875,30.8826875 21.9384375,31.0520625 22.0059375,31.2189375 C22.0734375,31.3864375 22.1978125,31.5433125 22.3790625,31.6901875 C22.4928125,31.7814375 22.6065625,31.8420625 22.7215625,31.8714375 C22.8371875,31.9008125 22.9515625,31.9051875 23.0653125,31.8845625 C23.1796875,31.8639375 23.2903125,31.8245625 23.3984375,31.7651875 C23.5059375,31.7064375 23.6115625,31.6358125 23.7153125,31.5545625 L24.9646875,30.6070625 C25.1496875,30.4714375 25.3365625,30.3539375 25.5246875,30.2551875 C25.7134375,30.1564375 25.9034375,30.0889375 26.0940625,30.0520625 C26.2853125,30.0151875 26.4778125,30.0208125 26.6715625,30.0683125 C26.8653125,30.1170625 27.0621875,30.2214375 27.2615625,30.3826875 C27.3165625,30.4264375 27.3840625,30.4908125 27.4659375,30.5751875 C27.5471875,30.6601875 27.6215625,30.7658125 27.6890625,30.8908125 C27.7559375,31.0164375 27.8096875,31.1614375 27.8503125,31.3251875 C27.8903125,31.4889375 27.8965625,31.6739375 27.8684375,31.8801875 C27.8403125,32.0864375 27.7703125,32.3126875 27.6571875,32.5589375 C27.5440625,32.8051875 27.3721875,33.0714375 27.1415625,33.3570625 C26.9103125,33.6426875 26.6628125,33.8814375 26.3990625,34.0733125 C26.1353125,34.2651875 25.8653125,34.3920625 25.5903125,34.4545625 C25.3146875,34.5170625 25.0328125,34.5083125 24.7440625,34.4289375 C24.4559375,34.3495625 24.1671875,34.1820625 23.8790625,33.9264375 L24.2534375,33.4633125 C24.4990625,33.6701875 24.7390625,33.8001875 24.9728125,33.8539375" id="Fill-1" fill="#231F20"></path>
                        <path d="M29.449125,26.1290625 C29.7535,25.8484375 29.929125,25.5434375 29.975375,25.2153125 C30.021625,24.8865625 29.8985,24.5640625 29.605375,24.2465625 C29.312875,23.9290625 29.001,23.7809375 28.66975,23.8003125 C28.339125,23.8203125 28.021,23.9703125 27.716625,24.2515625 L26.211625,25.6396875 L27.944125,27.5171875 L29.449125,26.1290625 Z M27.469125,23.7890625 C27.67475,23.5990625 27.887875,23.4559375 28.1085,23.3596875 C28.329125,23.2634375 28.55225,23.2165625 28.776625,23.2196875 C29.001625,23.2228125 29.221625,23.2759375 29.436,23.3790625 C29.651,23.4828125 29.852875,23.6378125 30.042875,23.8434375 C30.232875,24.0490625 30.371,24.2634375 30.456625,24.4853125 C30.542875,24.7078125 30.577875,24.9309375 30.562875,25.1553125 C30.54725,25.3796875 30.482875,25.5978125 30.369125,25.8103125 C30.255375,26.0221875 30.096,26.2228125 29.88975,26.4134375 L28.2885,27.8903125 L30.104125,29.8584375 L29.666625,30.2615625 L25.430375,25.6703125 L27.469125,23.7890625 Z" id="Fill-3" fill="#231F20"></path>
                        <polygon id="Fill-5" fill="#231F20" points="31.1505 20.79825 34.883 25.80825 34.4055 26.163875 30.673625 21.153875"></polygon>
                        <polygon id="Fill-7" fill="#231F20" points="33.8119375 18.959875 36.7831875 23.8705 39.7775625 22.058625 40.0406875 22.493 36.5369375 24.613 33.3031875 19.268"></polygon>
                        <polygon id="Fill-9" fill="#231F20" points="39.2285 15.9770625 41.54725 21.2276875 44.749125 19.8139375 44.954125 20.2783125 41.207875 21.9326875 38.684125 16.2176875"></polygon>
                        <path d="M48.6959375,16.58925 L46.6559375,13.841125 L46.3315625,17.263625 L48.6959375,16.58925 Z M46.8378125,13.1705 L50.9078125,18.506125 L50.2940625,18.681125 L49.0290625,17.02175 L46.2940625,17.80175 L46.1034375,19.87675 L45.4978125,20.04925 L46.1984375,13.352375 L46.8378125,13.1705 Z" id="Fill-11" fill="#231F20"></path>
                        <path d="M56.9866875,17.6970625 L56.7729375,16.5770625 L56.7554375,16.5789375 C56.6779375,16.8114375 56.5716875,17.0170625 56.4373125,17.1945625 C56.3029375,17.3720625 56.1491875,17.5226875 55.9760625,17.6464375 C55.8029375,17.7701875 55.6135625,17.8676875 55.4073125,17.9395625 C55.2016875,18.0108125 54.9854375,18.0608125 54.7598125,18.0876875 C54.2735625,18.1458125 53.8354375,18.1089375 53.4466875,17.9764375 C53.0573125,17.8433125 52.7241875,17.6445625 52.4454375,17.3783125 C52.1666875,17.1114375 51.9429375,16.7920625 51.7748125,16.4183125 C51.6066875,16.0451875 51.4973125,15.6439375 51.4454375,15.2151875 C51.3941875,14.7870625 51.4060625,14.3714375 51.4810625,13.9683125 C51.5566875,13.5658125 51.6979375,13.2008125 51.9054375,12.8733125 C52.1123125,12.5458125 52.3898125,12.2720625 52.7360625,12.0508125 C53.0829375,11.8301875 53.4991875,11.6908125 53.9860625,11.6326875 C54.3104375,11.5933125 54.6223125,11.6001875 54.9223125,11.6526875 C55.2223125,11.7045625 55.4960625,11.8039375 55.7423125,11.9508125 C55.9891875,12.0976875 56.2060625,12.2889375 56.3929375,12.5245625 C56.5798125,12.7608125 56.7229375,13.0464375 56.8216875,13.3808125 L56.2310625,13.4520625 C56.1923125,13.2745625 56.1110625,13.1008125 55.9879375,12.9301875 C55.8648125,12.7601875 55.7085625,12.6095625 55.5191875,12.4795625 C55.3304375,12.3495625 55.1116875,12.2508125 54.8629375,12.1839375 C54.6135625,12.1170625 54.3416875,12.1008125 54.0460625,12.1364375 C53.6348125,12.1858125 53.2910625,12.3064375 53.0148125,12.4983125 C52.7379375,12.6895625 52.5204375,12.9258125 52.3635625,13.2058125 C52.2060625,13.4864375 52.1023125,13.7939375 52.0516875,14.1295625 C52.0004375,14.4645625 51.9954375,14.8026875 52.0366875,15.1445625 C52.0766875,15.4808125 52.1610625,15.8070625 52.2904375,16.1233125 C52.4191875,16.4395625 52.5935625,16.7158125 52.8123125,16.9508125 C53.0316875,17.1858125 53.2985625,17.3639375 53.6123125,17.4851875 C53.9266875,17.6058125 54.2891875,17.6414375 54.7004375,17.5926875 C55.0423125,17.5514375 55.3410625,17.4583125 55.5966875,17.3126875 C55.8529375,17.1676875 56.0610625,16.9826875 56.2216875,16.7576875 C56.3829375,16.5326875 56.4929375,16.2758125 56.5523125,15.9864375 C56.6116875,15.6976875 56.6185625,15.3883125 56.5735625,15.0589375 L54.4623125,15.3120625 L54.4016875,14.8076875 L57.0341875,14.4926875 L57.4123125,17.6458125 L56.9866875,17.6970625 Z" id="Fill-13" fill="#231F20"></path>
                        <polygon id="Fill-15" fill="#231F20" points="63.7139375 11.5233125 63.6976875 12.0308125 59.9808125 11.9095625 59.9076875 14.1664375 63.3883125 14.2789375 63.3720625 14.7864375 59.8908125 14.6733125 59.8108125 17.1395625 63.5714375 17.2614375 63.5551875 17.7689375 59.1995625 17.6276875 59.4026875 11.3833125"></polygon>
                        <polygon id="Fill-17" fill="#231F20" points="66.820375 11.8980625 69.44225 17.7555625 69.45975 17.7580625 70.41725 12.5611875 71.00225 12.6686875 69.86975 18.8124375 69.216 18.6924375 66.594125 12.8355625 66.576625 12.8318125 65.619125 18.0293125 65.034125 17.9218125 66.166 11.7774375"></polygon>
                        <path d="M77.4465625,16.05825 C77.3978125,15.8395 77.3140625,15.64075 77.1959375,15.461375 C77.0771875,15.282625 76.9321875,15.126375 76.7596875,14.99325 C76.5871875,14.860125 76.3940625,14.755125 76.1803125,14.67825 C75.7903125,14.53825 75.4284375,14.492 75.0953125,14.5395 C74.7621875,14.587 74.4628125,14.701375 74.1965625,14.881375 C73.9303125,15.062 73.6996875,15.290125 73.5040625,15.567 C73.3084375,15.843875 73.1528125,16.1445 73.0359375,16.46825 C72.9221875,16.787 72.8509375,17.116375 72.8246875,17.457 C72.7984375,17.79825 72.8309375,18.122625 72.9221875,18.43075 C73.0121875,18.7395 73.1709375,19.017625 73.3978125,19.266375 C73.6246875,19.515125 73.9328125,19.7095 74.3228125,19.8495 C74.5971875,19.94825 74.8615625,19.987625 75.1165625,19.967625 C75.3721875,19.947625 75.6103125,19.881375 75.8303125,19.76825 C76.0509375,19.655125 76.2509375,19.502625 76.4315625,19.310125 C76.6121875,19.11825 76.7634375,18.895125 76.8859375,18.641375 L77.4459375,18.842625 C77.2771875,19.19075 77.0746875,19.487 76.8384375,19.73075 C76.6021875,19.9745 76.3428125,20.160125 76.0615625,20.288875 C75.7803125,20.417 75.4784375,20.485125 75.1559375,20.49325 C74.8340625,20.501375 74.4996875,20.44325 74.1540625,20.318875 C73.6928125,20.153875 73.3184375,19.9245 73.0296875,19.632 C72.7415625,19.3395 72.5321875,19.011375 72.4021875,18.648875 C72.2721875,18.28575 72.2153125,17.8995 72.2321875,17.49075 C72.2490625,17.081375 72.3303125,16.67325 72.4765625,16.267 C72.6221875,15.861375 72.8190625,15.4945 73.0659375,15.16825 C73.3140625,14.842 73.6034375,14.578875 73.9359375,14.378875 C74.2678125,14.178875 74.6378125,14.057625 75.0465625,14.015125 C75.4553125,13.97325 75.8909375,14.035125 76.3515625,14.20075 C76.6315625,14.30075 76.8896875,14.44075 77.1265625,14.61825 C77.3634375,14.796375 77.5615625,15.005125 77.7196875,15.245125 C77.8784375,15.485125 77.9878125,15.748875 78.0490625,16.037625 C78.1096875,16.32575 78.1040625,16.63075 78.0321875,16.952 L77.4721875,16.75075 C77.5034375,16.507625 77.4946875,16.277 77.4465625,16.05825" id="Fill-19" fill="#231F20"></path>
                        <polygon id="Fill-21" fill="#231F20" points="80.4055625 15.947125 81.0205625 16.2815 81.3155625 20.0465 84.6268125 18.24025 85.2493125 18.578375 81.3268125 20.63025 80.0986875 22.89025 79.5761875 22.6065 80.8043125 20.345875"></polygon>
                        <path d="M90.7540625,90.1475625 C90.5296875,90.0619375 90.3065625,90.0363125 90.0853125,90.0688125 C89.8628125,90.1019375 89.6421875,90.1844375 89.4215625,90.3163125 C89.2015625,90.4475625 88.9871875,90.6113125 88.7790625,90.8081875 C88.6603125,90.9194375 88.5471875,91.0588125 88.4390625,91.2250625 C88.3309375,91.3906875 88.2515625,91.5681875 88.2003125,91.7563125 C88.1496875,91.9450625 88.1384375,92.1356875 88.1684375,92.3281875 C88.1978125,92.5213125 88.2909375,92.7000625 88.4471875,92.8656875 C88.5671875,92.9931875 88.6996875,93.0763125 88.8446875,93.1156875 C88.9903125,93.1550625 89.1390625,93.1631875 89.2896875,93.1406875 C89.4409375,93.1181875 89.5915625,93.0756875 89.7396875,93.0113125 C89.8878125,92.9475625 90.0271875,92.8781875 90.1571875,92.8038125 L91.4034375,92.0975625 C91.5665625,92.0075625 91.7346875,91.9288125 91.9084375,91.8613125 C92.0815625,91.7944375 92.2546875,91.7588125 92.4284375,91.7556875 C92.6015625,91.7519375 92.7746875,91.7850625 92.9484375,91.8538125 C93.1215625,91.9231875 93.2928125,92.0469375 93.4609375,92.2250625 C93.5646875,92.3356875 93.6653125,92.4844375 93.7628125,92.6731875 C93.8609375,92.8619375 93.9140625,93.0769375 93.9209375,93.3188125 C93.9284375,93.5600625 93.8734375,93.8225625 93.7559375,94.1063125 C93.6378125,94.3894375 93.4203125,94.6813125 93.1021875,94.9813125 C92.8771875,95.1938125 92.6353125,95.3663125 92.3753125,95.4994375 C92.1153125,95.6313125 91.8534375,95.7106875 91.5884375,95.7356875 C91.3234375,95.7613125 91.0621875,95.7294375 90.8053125,95.6388125 C90.5478125,95.5494375 90.3090625,95.3875625 90.0890625,95.1544375 L90.5215625,94.7456875 C90.6940625,94.9113125 90.8765625,95.0263125 91.0684375,95.0894375 C91.2609375,95.1531875 91.4540625,95.1750625 91.6490625,95.1563125 C91.8428125,95.1363125 92.0346875,95.0806875 92.2234375,94.9869375 C92.4109375,94.8938125 92.5865625,94.7700625 92.7471875,94.6181875 C92.8959375,94.4788125 93.0240625,94.3269375 93.1321875,94.1656875 C93.2403125,94.0038125 93.3128125,93.8381875 93.3503125,93.6706875 C93.3884375,93.5019375 93.3853125,93.3313125 93.3409375,93.1563125 C93.2959375,92.9819375 93.1940625,92.8094375 93.0334375,92.6394375 C92.9334375,92.5338125 92.8284375,92.4581875 92.7190625,92.4138125 C92.6084375,92.3694375 92.4953125,92.3494375 92.3803125,92.3544375 C92.2640625,92.3594375 92.1484375,92.3838125 92.0340625,92.4281875 C91.9190625,92.4725625 91.8059375,92.5281875 91.6921875,92.5944375 L90.3259375,93.3656875 C90.1253125,93.4756875 89.9246875,93.5669375 89.7246875,93.6394375 C89.5240625,93.7119375 89.3271875,93.7538125 89.1321875,93.7644375 C88.9384375,93.7756875 88.7484375,93.7438125 88.5628125,93.6706875 C88.3771875,93.5975625 88.1959375,93.4675625 88.0203125,93.2806875 C87.9721875,93.2294375 87.9134375,93.1563125 87.8440625,93.0619375 C87.7740625,92.9669375 87.7153125,92.8525625 87.6653125,92.7188125 C87.6159375,92.5850625 87.5815625,92.4350625 87.5640625,92.2675625 C87.5459375,92.0994375 87.5640625,91.9156875 87.6196875,91.7150625 C87.6753125,91.5144375 87.7753125,91.3000625 87.9203125,91.0713125 C88.0653125,90.8419375 88.2709375,90.6013125 88.5384375,90.3488125 C88.8059375,90.0969375 89.0828125,89.8938125 89.3703125,89.7388125 C89.6571875,89.5844375 89.9415625,89.4944375 90.2228125,89.4694375 C90.5046875,89.4444375 90.7828125,89.4906875 91.0571875,89.6081875 C91.3328125,89.7256875 91.5965625,89.9300625 91.8478125,90.2225625 L91.4153125,90.6306875 C91.1990625,90.3938125 90.9784375,90.2325625 90.7540625,90.1475625" id="Fill-23" fill="#231F20"></path>
                        <path d="M85.276125,97.2056875 C84.93675,97.4431875 84.72175,97.7213125 84.632375,98.0406875 C84.54175,98.3600625 84.6205,98.6963125 84.868,99.0500625 C85.1155,99.4038125 85.40425,99.5925625 85.734875,99.6175625 C86.066125,99.6425625 86.401125,99.5363125 86.7405,99.3000625 L88.418,98.1263125 L86.95425,96.0325625 L85.276125,97.2056875 Z M86.923625,99.7906875 C86.69425,99.9513125 86.463625,100.063812 86.23175,100.130062 C86.0005,100.195687 85.773625,100.212562 85.5505,100.179437 C85.328625,100.146312 85.118,100.063812 84.91925,99.9319375 C84.7205,99.8006875 84.5405,99.6200625 84.379875,99.3906875 C84.2205,99.1613125 84.112375,98.9306875 84.05675,98.6994375 C84.001125,98.4675625 83.996125,98.2406875 84.041125,98.0213125 C84.087375,97.8006875 84.179875,97.5931875 84.32175,97.3981875 C84.462375,97.2031875 84.648,97.0256875 84.877375,96.8650625 L86.663,95.6163125 L85.128625,93.4219375 L85.616125,93.0813125 L89.196125,98.2013125 L86.923625,99.7906875 Z" id="Fill-25" fill="#231F20"></path>
                        <polygon id="Fill-27" fill="#231F20" points="82.867125 102.26125 79.845875 96.793125 80.3665 96.505625 83.388375 101.97375"></polygon>
                        <polygon id="Fill-29" fill="#231F20" points="79.981375 103.723062 77.702625 98.4543125 74.49075 99.8436875 74.2895 99.3780625 78.047625 97.7524375 80.527625 103.486812"></polygon>
                        <polygon id="Fill-31" fill="#231F20" points="74.2110625 105.942875 72.6279375 100.426 69.2635625 101.391 69.1235625 100.9035 73.0598125 99.774125 74.7829375 105.779125"></polygon>
                        <path d="M64.899875,104.050188 L66.54675,107.050813 L67.33425,103.703938 L64.899875,104.050188 Z M66.2755,107.690188 L62.96925,101.850188 L63.60175,101.760188 L64.62925,103.576437 L67.444875,103.175813 L67.916125,101.146438 L68.539875,101.057688 L66.933625,107.596438 L66.2755,107.690188 Z" id="Fill-33" fill="#231F20"></path>
                        <path d="M56.863375,101.834625 L56.924,102.97275 L56.9415,102.973375 C57.049625,102.753375 57.18275,102.564625 57.339625,102.4065 C57.497125,102.248375 57.669625,102.12025 57.85775,102.0215 C58.0465,101.922125 58.247125,101.850875 58.460875,101.80775 C58.674625,101.764625 58.89525,101.744625 59.12275,101.748375 C59.612125,101.7565 60.040875,101.852125 60.408375,102.0365 C60.7765,102.22025 61.08025,102.46275 61.32025,102.764 C61.56025,103.065875 61.738375,103.41275 61.854625,103.80525 C61.970875,104.198375 62.02525,104.61025 62.018375,105.042125 C62.0115,105.474 61.943375,105.884 61.814625,106.273375 C61.685875,106.662125 61.4965,107.004 61.2465,107.300875 C60.9965,107.597125 60.68525,107.8315 60.312125,108.00275 C59.938375,108.17525 59.507125,108.2565 59.017125,108.249 C58.69025,108.244 58.382125,108.19525 58.0915,108.10275 C57.8015,108.010875 57.544,107.87525 57.319625,107.6965 C57.09525,107.51775 56.905875,107.298375 56.75275,107.039625 C56.599625,106.78025 56.4965,106.478375 56.443375,106.133375 L57.038375,106.143375 C57.053375,106.324 57.11025,106.50775 57.209,106.692125 C57.30775,106.87775 57.44275,107.04775 57.612125,107.202125 C57.7815,107.3565 57.98525,107.484 58.22275,107.584 C58.46025,107.684 58.72775,107.7365 59.02525,107.7415 C59.439625,107.748375 59.7965,107.67525 60.0965,107.52275 C60.3965,107.369625 60.643375,107.16525 60.837125,106.909 C61.030875,106.65275 61.175875,106.3615 61.2715,106.0365 C61.367125,105.7115 61.41775,105.3765 61.423375,105.03275 C61.429,104.694 61.389,104.359625 61.304,104.029 C61.219,103.697125 61.083375,103.400875 60.898375,103.138375 C60.713375,102.87525 60.47275,102.66275 60.17775,102.500875 C59.883375,102.339 59.529,102.254 59.114625,102.247125 C58.77025,102.2415 58.462125,102.293375 58.189,102.40275 C57.915875,102.512125 57.684,102.667125 57.494,102.868375 C57.304625,103.069625 57.16025,103.309 57.062125,103.588375 C56.964625,103.8665 56.915875,104.1715 56.915875,104.504 L59.042125,104.539 L59.034,105.0465 L56.38275,105.003375 L56.434625,101.827125 L56.863375,101.834625 Z" id="Fill-35" fill="#231F20"></path>
                        <polygon id="Fill-37" fill="#231F20" points="49.3511875 107.054937 49.4355625 106.554312 53.1024375 107.173687 53.4786875 104.948063 50.0443125 104.367437 50.1293125 103.867437 53.5630625 104.447437 53.9736875 102.014938 50.2636875 101.388063 50.3486875 100.887438 54.6449375 101.613062 53.6049375 107.773062"></polygon>
                        <polygon id="Fill-39" fill="#231F20" points="46.32075 106.260875 44.5195 100.102125 44.502625 100.0965 42.847 105.11525 42.282625 104.929 44.238875 98.995875 44.87075 99.204 46.672 105.36275 46.688875 105.368375 48.343875 100.349625 48.9095 100.535875 46.952625 106.469"></polygon>
                        <path d="M36.35925,100.6975 C36.377375,100.920625 36.433625,101.12875 36.52675,101.3225 C36.619875,101.51625 36.743,101.69 36.894875,101.845625 C37.048,102.000625 37.224875,102.13125 37.42675,102.23625 C37.793625,102.428125 38.1455,102.5225 38.482375,102.520625 C38.81925,102.51875 39.13175,102.44625 39.41925,102.30375 C39.707375,102.161875 39.967375,101.96625 40.198625,101.71875 C40.429875,101.470625 40.624875,101.194375 40.78425,100.889375 C40.941125,100.589375 41.0555,100.271875 41.127375,99.938125 C41.199875,99.604375 41.212375,99.278125 41.16425,98.960625 C41.116125,98.643125 40.99675,98.345 40.8055,98.068125 C40.614875,97.790625 40.336125,97.55625 39.968625,97.364375 C39.709875,97.229375 39.453,97.155 39.198,97.14 C38.942375,97.125 38.698,97.15875 38.46425,97.240625 C38.2305,97.323125 38.011125,97.446875 37.806125,97.6125 C37.601125,97.77875 37.4205,97.979375 37.2655,98.21375 L36.737375,97.93875 C36.952375,97.61625 37.192375,97.350625 37.459875,97.14125 C37.72675,96.931875 38.00925,96.7825 38.3055,96.694375 C38.60175,96.605 38.909875,96.57875 39.2305,96.614375 C39.5505,96.649375 39.873625,96.7525 40.19925,96.9225 C40.633625,97.14875 40.97425,97.4275 41.219875,97.75625 C41.466125,98.085 41.62925,98.43875 41.708625,98.815 C41.788625,99.1925 41.79175,99.5825 41.719875,99.985625 C41.647375,100.38875 41.51175,100.781875 41.31175,101.164375 C41.11175,101.546875 40.867375,101.883125 40.578,102.173125 C40.288625,102.463125 39.966125,102.685 39.609875,102.8375 C39.253625,102.990625 38.8705,103.06 38.45925,103.046875 C38.048625,103.0325 37.626125,102.913125 37.19175,102.68625 C36.928,102.54875 36.691125,102.375625 36.4805,102.1675 C36.2705,101.95875 36.103,101.725 35.978,101.465625 C35.853625,101.20625 35.7805,100.93 35.759875,100.635625 C35.738625,100.3425 35.7855,100.040625 35.9005,99.7325 L36.428,100.0075 C36.363625,100.24375 36.341125,100.474375 36.35925,100.6975" id="Fill-41" fill="#231F20"></path>
                        <polygon id="Fill-43" fill="#231F20" points="33.4075625 100.402125 32.8431875 99.988375 33.0594375 96.218375 29.5350625 97.559625 28.9638125 97.14025 33.1275625 95.63775 34.6494375 93.564 35.1288125 93.915875 33.6069375 95.989625"></polygon>
                        <path d="M119.388125,59.77225 C119.388125,92.69725 92.696875,119.3885 59.771875,119.3885 C26.8475,119.3885 0.15625,92.69725 0.15625,59.77225 C0.15625,26.84725 26.8475,0.156625 59.771875,0.156625 C92.696875,0.156625 119.388125,26.84725 119.388125,59.77225 Z" id="Stroke-45" stroke="#020303" stroke-width="0.5"></path>
                    </g>
                    <g id="Group-47">
                        <path d="M24.9728125,33.8539375 C25.2065625,33.9083125 25.4309375,33.9039375 25.6465625,33.8414375 C25.8615625,33.7795625 26.0696875,33.6683125 26.2709375,33.5083125 C26.4715625,33.3476875 26.6615625,33.1564375 26.8415625,32.9345625 C26.9440625,32.8076875 27.0378125,32.6545625 27.1221875,32.4751875 C27.2071875,32.2964375 27.2621875,32.1101875 27.2871875,31.9164375 C27.3128125,31.7233125 27.2978125,31.5333125 27.2421875,31.3458125 C27.1871875,31.1589375 27.0715625,30.9939375 26.8946875,30.8508125 C26.7584375,30.7408125 26.6159375,30.6758125 26.4665625,30.6564375 C26.3171875,30.6370625 26.1690625,30.6489375 26.0221875,30.6908125 C25.8753125,30.7339375 25.7328125,30.7964375 25.5940625,30.8795625 C25.4553125,30.9626875 25.3265625,31.0501875 25.2078125,31.1414375 L24.0678125,32.0083125 C23.9184375,32.1201875 23.7615625,32.2208125 23.5990625,32.3101875 C23.4365625,32.4001875 23.2690625,32.4583125 23.0978125,32.4845625 C22.9265625,32.5114375 22.7503125,32.5020625 22.5690625,32.4570625 C22.3884375,32.4114375 22.2021875,32.3120625 22.0121875,32.1583125 C21.8940625,32.0626875 21.7740625,31.9283125 21.6521875,31.7545625 C21.5296875,31.5808125 21.4490625,31.3745625 21.4090625,31.1358125 C21.3690625,30.8976875 21.3890625,30.6301875 21.4671875,30.3339375 C21.5459375,30.0370625 21.7221875,29.7183125 21.9978125,29.3783125 C22.1921875,29.1383125 22.4090625,28.9345625 22.6484375,28.7683125 C22.8884375,28.6020625 23.1371875,28.4883125 23.3965625,28.4276875 C23.6553125,28.3670625 23.9184375,28.3639375 24.1853125,28.4189375 C24.4528125,28.4733125 24.7109375,28.6014375 24.9603125,28.8033125 L24.5865625,29.2658125 C24.3928125,29.1245625 24.1971875,29.0358125 23.9978125,28.9983125 C23.7990625,28.9614375 23.6046875,28.9658125 23.4146875,29.0101875 C23.2246875,29.0558125 23.0421875,29.1370625 22.8678125,29.2551875 C22.6940625,29.3733125 22.5371875,29.5183125 22.3978125,29.6908125 C22.2690625,29.8495625 22.1621875,30.0164375 22.0771875,30.1914375 C21.9921875,30.3658125 21.9421875,30.5395625 21.9271875,30.7108125 C21.9121875,30.8826875 21.9384375,31.0520625 22.0059375,31.2189375 C22.0734375,31.3864375 22.1978125,31.5433125 22.3790625,31.6901875 C22.4928125,31.7814375 22.6065625,31.8420625 22.7215625,31.8714375 C22.8371875,31.9008125 22.9515625,31.9051875 23.0653125,31.8845625 C23.1796875,31.8639375 23.2903125,31.8245625 23.3984375,31.7651875 C23.5059375,31.7064375 23.6115625,31.6358125 23.7153125,31.5545625 L24.9646875,30.6070625 C25.1496875,30.4714375 25.3365625,30.3539375 25.5246875,30.2551875 C25.7134375,30.1564375 25.9034375,30.0889375 26.0940625,30.0520625 C26.2853125,30.0151875 26.4778125,30.0208125 26.6715625,30.0683125 C26.8653125,30.1170625 27.0621875,30.2214375 27.2615625,30.3826875 C27.3165625,30.4264375 27.3840625,30.4908125 27.4659375,30.5751875 C27.5471875,30.6601875 27.6215625,30.7658125 27.6890625,30.8908125 C27.7559375,31.0164375 27.8096875,31.1614375 27.8503125,31.3251875 C27.8903125,31.4889375 27.8965625,31.6739375 27.8684375,31.8801875 C27.8403125,32.0864375 27.7703125,32.3126875 27.6571875,32.5589375 C27.5440625,32.8051875 27.3721875,33.0714375 27.1415625,33.3570625 C26.9103125,33.6426875 26.6628125,33.8814375 26.3990625,34.0733125 C26.1353125,34.2651875 25.8653125,34.3920625 25.5903125,34.4545625 C25.3146875,34.5170625 25.0328125,34.5083125 24.7440625,34.4289375 C24.4559375,34.3495625 24.1671875,34.1820625 23.8790625,33.9264375 L24.2534375,33.4633125 C24.4990625,33.6701875 24.7390625,33.8001875 24.9728125,33.8539375" id="Fill-1" fill="#231F20"></path>
                        <path d="M29.449125,26.1290625 C29.7535,25.8484375 29.929125,25.5434375 29.975375,25.2153125 C30.021625,24.8865625 29.8985,24.5640625 29.605375,24.2465625 C29.312875,23.9290625 29.001,23.7809375 28.66975,23.8003125 C28.339125,23.8203125 28.021,23.9703125 27.716625,24.2515625 L26.211625,25.6396875 L27.944125,27.5171875 L29.449125,26.1290625 Z M27.469125,23.7890625 C27.67475,23.5990625 27.887875,23.4559375 28.1085,23.3596875 C28.329125,23.2634375 28.55225,23.2165625 28.776625,23.2196875 C29.001625,23.2228125 29.221625,23.2759375 29.436,23.3790625 C29.651,23.4828125 29.852875,23.6378125 30.042875,23.8434375 C30.232875,24.0490625 30.371,24.2634375 30.456625,24.4853125 C30.542875,24.7078125 30.577875,24.9309375 30.562875,25.1553125 C30.54725,25.3796875 30.482875,25.5978125 30.369125,25.8103125 C30.255375,26.0221875 30.096,26.2228125 29.88975,26.4134375 L28.2885,27.8903125 L30.104125,29.8584375 L29.666625,30.2615625 L25.430375,25.6703125 L27.469125,23.7890625 Z" id="Fill-3" fill="#231F20"></path>
                        <polygon id="Fill-5" fill="#231F20" points="31.1505 20.79825 34.883 25.80825 34.4055 26.163875 30.673625 21.153875"></polygon>
                        <polygon id="Fill-7" fill="#231F20" points="33.8119375 18.959875 36.7831875 23.8705 39.7775625 22.058625 40.0406875 22.493 36.5369375 24.613 33.3031875 19.268"></polygon>
                        <polygon id="Fill-9" fill="#231F20" points="39.2285 15.9770625 41.54725 21.2276875 44.749125 19.8139375 44.954125 20.2783125 41.207875 21.9326875 38.684125 16.2176875"></polygon>
                        <path d="M48.6959375,16.58925 L46.6559375,13.841125 L46.3315625,17.263625 L48.6959375,16.58925 Z M46.8378125,13.1705 L50.9078125,18.506125 L50.2940625,18.681125 L49.0290625,17.02175 L46.2940625,17.80175 L46.1034375,19.87675 L45.4978125,20.04925 L46.1984375,13.352375 L46.8378125,13.1705 Z" id="Fill-11" fill="#231F20"></path>
                        <path d="M56.9866875,17.6970625 L56.7729375,16.5770625 L56.7554375,16.5789375 C56.6779375,16.8114375 56.5716875,17.0170625 56.4373125,17.1945625 C56.3029375,17.3720625 56.1491875,17.5226875 55.9760625,17.6464375 C55.8029375,17.7701875 55.6135625,17.8676875 55.4073125,17.9395625 C55.2016875,18.0108125 54.9854375,18.0608125 54.7598125,18.0876875 C54.2735625,18.1458125 53.8354375,18.1089375 53.4466875,17.9764375 C53.0573125,17.8433125 52.7241875,17.6445625 52.4454375,17.3783125 C52.1666875,17.1114375 51.9429375,16.7920625 51.7748125,16.4183125 C51.6066875,16.0451875 51.4973125,15.6439375 51.4454375,15.2151875 C51.3941875,14.7870625 51.4060625,14.3714375 51.4810625,13.9683125 C51.5566875,13.5658125 51.6979375,13.2008125 51.9054375,12.8733125 C52.1123125,12.5458125 52.3898125,12.2720625 52.7360625,12.0508125 C53.0829375,11.8301875 53.4991875,11.6908125 53.9860625,11.6326875 C54.3104375,11.5933125 54.6223125,11.6001875 54.9223125,11.6526875 C55.2223125,11.7045625 55.4960625,11.8039375 55.7423125,11.9508125 C55.9891875,12.0976875 56.2060625,12.2889375 56.3929375,12.5245625 C56.5798125,12.7608125 56.7229375,13.0464375 56.8216875,13.3808125 L56.2310625,13.4520625 C56.1923125,13.2745625 56.1110625,13.1008125 55.9879375,12.9301875 C55.8648125,12.7601875 55.7085625,12.6095625 55.5191875,12.4795625 C55.3304375,12.3495625 55.1116875,12.2508125 54.8629375,12.1839375 C54.6135625,12.1170625 54.3416875,12.1008125 54.0460625,12.1364375 C53.6348125,12.1858125 53.2910625,12.3064375 53.0148125,12.4983125 C52.7379375,12.6895625 52.5204375,12.9258125 52.3635625,13.2058125 C52.2060625,13.4864375 52.1023125,13.7939375 52.0516875,14.1295625 C52.0004375,14.4645625 51.9954375,14.8026875 52.0366875,15.1445625 C52.0766875,15.4808125 52.1610625,15.8070625 52.2904375,16.1233125 C52.4191875,16.4395625 52.5935625,16.7158125 52.8123125,16.9508125 C53.0316875,17.1858125 53.2985625,17.3639375 53.6123125,17.4851875 C53.9266875,17.6058125 54.2891875,17.6414375 54.7004375,17.5926875 C55.0423125,17.5514375 55.3410625,17.4583125 55.5966875,17.3126875 C55.8529375,17.1676875 56.0610625,16.9826875 56.2216875,16.7576875 C56.3829375,16.5326875 56.4929375,16.2758125 56.5523125,15.9864375 C56.6116875,15.6976875 56.6185625,15.3883125 56.5735625,15.0589375 L54.4623125,15.3120625 L54.4016875,14.8076875 L57.0341875,14.4926875 L57.4123125,17.6458125 L56.9866875,17.6970625 Z" id="Fill-13" fill="#231F20"></path>
                        <polygon id="Fill-15" fill="#231F20" points="63.7139375 11.5233125 63.6976875 12.0308125 59.9808125 11.9095625 59.9076875 14.1664375 63.3883125 14.2789375 63.3720625 14.7864375 59.8908125 14.6733125 59.8108125 17.1395625 63.5714375 17.2614375 63.5551875 17.7689375 59.1995625 17.6276875 59.4026875 11.3833125"></polygon>
                        <polygon id="Fill-17" fill="#231F20" points="66.820375 11.8980625 69.44225 17.7555625 69.45975 17.7580625 70.41725 12.5611875 71.00225 12.6686875 69.86975 18.8124375 69.216 18.6924375 66.594125 12.8355625 66.576625 12.8318125 65.619125 18.0293125 65.034125 17.9218125 66.166 11.7774375"></polygon>
                        <path d="M77.4465625,16.05825 C77.3978125,15.8395 77.3140625,15.64075 77.1959375,15.461375 C77.0771875,15.282625 76.9321875,15.126375 76.7596875,14.99325 C76.5871875,14.860125 76.3940625,14.755125 76.1803125,14.67825 C75.7903125,14.53825 75.4284375,14.492 75.0953125,14.5395 C74.7621875,14.587 74.4628125,14.701375 74.1965625,14.881375 C73.9303125,15.062 73.6996875,15.290125 73.5040625,15.567 C73.3084375,15.843875 73.1528125,16.1445 73.0359375,16.46825 C72.9221875,16.787 72.8509375,17.116375 72.8246875,17.457 C72.7984375,17.79825 72.8309375,18.122625 72.9221875,18.43075 C73.0121875,18.7395 73.1709375,19.017625 73.3978125,19.266375 C73.6246875,19.515125 73.9328125,19.7095 74.3228125,19.8495 C74.5971875,19.94825 74.8615625,19.987625 75.1165625,19.967625 C75.3721875,19.947625 75.6103125,19.881375 75.8303125,19.76825 C76.0509375,19.655125 76.2509375,19.502625 76.4315625,19.310125 C76.6121875,19.11825 76.7634375,18.895125 76.8859375,18.641375 L77.4459375,18.842625 C77.2771875,19.19075 77.0746875,19.487 76.8384375,19.73075 C76.6021875,19.9745 76.3428125,20.160125 76.0615625,20.288875 C75.7803125,20.417 75.4784375,20.485125 75.1559375,20.49325 C74.8340625,20.501375 74.4996875,20.44325 74.1540625,20.318875 C73.6928125,20.153875 73.3184375,19.9245 73.0296875,19.632 C72.7415625,19.3395 72.5321875,19.011375 72.4021875,18.648875 C72.2721875,18.28575 72.2153125,17.8995 72.2321875,17.49075 C72.2490625,17.081375 72.3303125,16.67325 72.4765625,16.267 C72.6221875,15.861375 72.8190625,15.4945 73.0659375,15.16825 C73.3140625,14.842 73.6034375,14.578875 73.9359375,14.378875 C74.2678125,14.178875 74.6378125,14.057625 75.0465625,14.015125 C75.4553125,13.97325 75.8909375,14.035125 76.3515625,14.20075 C76.6315625,14.30075 76.8896875,14.44075 77.1265625,14.61825 C77.3634375,14.796375 77.5615625,15.005125 77.7196875,15.245125 C77.8784375,15.485125 77.9878125,15.748875 78.0490625,16.037625 C78.1096875,16.32575 78.1040625,16.63075 78.0321875,16.952 L77.4721875,16.75075 C77.5034375,16.507625 77.4946875,16.277 77.4465625,16.05825" id="Fill-19" fill="#231F20"></path>
                        <polygon id="Fill-21" fill="#231F20" points="80.4055625 15.947125 81.0205625 16.2815 81.3155625 20.0465 84.6268125 18.24025 85.2493125 18.578375 81.3268125 20.63025 80.0986875 22.89025 79.5761875 22.6065 80.8043125 20.345875"></polygon>
                        <path d="M90.7540625,90.1475625 C90.5296875,90.0619375 90.3065625,90.0363125 90.0853125,90.0688125 C89.8628125,90.1019375 89.6421875,90.1844375 89.4215625,90.3163125 C89.2015625,90.4475625 88.9871875,90.6113125 88.7790625,90.8081875 C88.6603125,90.9194375 88.5471875,91.0588125 88.4390625,91.2250625 C88.3309375,91.3906875 88.2515625,91.5681875 88.2003125,91.7563125 C88.1496875,91.9450625 88.1384375,92.1356875 88.1684375,92.3281875 C88.1978125,92.5213125 88.2909375,92.7000625 88.4471875,92.8656875 C88.5671875,92.9931875 88.6996875,93.0763125 88.8446875,93.1156875 C88.9903125,93.1550625 89.1390625,93.1631875 89.2896875,93.1406875 C89.4409375,93.1181875 89.5915625,93.0756875 89.7396875,93.0113125 C89.8878125,92.9475625 90.0271875,92.8781875 90.1571875,92.8038125 L91.4034375,92.0975625 C91.5665625,92.0075625 91.7346875,91.9288125 91.9084375,91.8613125 C92.0815625,91.7944375 92.2546875,91.7588125 92.4284375,91.7556875 C92.6015625,91.7519375 92.7746875,91.7850625 92.9484375,91.8538125 C93.1215625,91.9231875 93.2928125,92.0469375 93.4609375,92.2250625 C93.5646875,92.3356875 93.6653125,92.4844375 93.7628125,92.6731875 C93.8609375,92.8619375 93.9140625,93.0769375 93.9209375,93.3188125 C93.9284375,93.5600625 93.8734375,93.8225625 93.7559375,94.1063125 C93.6378125,94.3894375 93.4203125,94.6813125 93.1021875,94.9813125 C92.8771875,95.1938125 92.6353125,95.3663125 92.3753125,95.4994375 C92.1153125,95.6313125 91.8534375,95.7106875 91.5884375,95.7356875 C91.3234375,95.7613125 91.0621875,95.7294375 90.8053125,95.6388125 C90.5478125,95.5494375 90.3090625,95.3875625 90.0890625,95.1544375 L90.5215625,94.7456875 C90.6940625,94.9113125 90.8765625,95.0263125 91.0684375,95.0894375 C91.2609375,95.1531875 91.4540625,95.1750625 91.6490625,95.1563125 C91.8428125,95.1363125 92.0346875,95.0806875 92.2234375,94.9869375 C92.4109375,94.8938125 92.5865625,94.7700625 92.7471875,94.6181875 C92.8959375,94.4788125 93.0240625,94.3269375 93.1321875,94.1656875 C93.2403125,94.0038125 93.3128125,93.8381875 93.3503125,93.6706875 C93.3884375,93.5019375 93.3853125,93.3313125 93.3409375,93.1563125 C93.2959375,92.9819375 93.1940625,92.8094375 93.0334375,92.6394375 C92.9334375,92.5338125 92.8284375,92.4581875 92.7190625,92.4138125 C92.6084375,92.3694375 92.4953125,92.3494375 92.3803125,92.3544375 C92.2640625,92.3594375 92.1484375,92.3838125 92.0340625,92.4281875 C91.9190625,92.4725625 91.8059375,92.5281875 91.6921875,92.5944375 L90.3259375,93.3656875 C90.1253125,93.4756875 89.9246875,93.5669375 89.7246875,93.6394375 C89.5240625,93.7119375 89.3271875,93.7538125 89.1321875,93.7644375 C88.9384375,93.7756875 88.7484375,93.7438125 88.5628125,93.6706875 C88.3771875,93.5975625 88.1959375,93.4675625 88.0203125,93.2806875 C87.9721875,93.2294375 87.9134375,93.1563125 87.8440625,93.0619375 C87.7740625,92.9669375 87.7153125,92.8525625 87.6653125,92.7188125 C87.6159375,92.5850625 87.5815625,92.4350625 87.5640625,92.2675625 C87.5459375,92.0994375 87.5640625,91.9156875 87.6196875,91.7150625 C87.6753125,91.5144375 87.7753125,91.3000625 87.9203125,91.0713125 C88.0653125,90.8419375 88.2709375,90.6013125 88.5384375,90.3488125 C88.8059375,90.0969375 89.0828125,89.8938125 89.3703125,89.7388125 C89.6571875,89.5844375 89.9415625,89.4944375 90.2228125,89.4694375 C90.5046875,89.4444375 90.7828125,89.4906875 91.0571875,89.6081875 C91.3328125,89.7256875 91.5965625,89.9300625 91.8478125,90.2225625 L91.4153125,90.6306875 C91.1990625,90.3938125 90.9784375,90.2325625 90.7540625,90.1475625" id="Fill-23" fill="#231F20"></path>
                        <path d="M85.276125,97.2056875 C84.93675,97.4431875 84.72175,97.7213125 84.632375,98.0406875 C84.54175,98.3600625 84.6205,98.6963125 84.868,99.0500625 C85.1155,99.4038125 85.40425,99.5925625 85.734875,99.6175625 C86.066125,99.6425625 86.401125,99.5363125 86.7405,99.3000625 L88.418,98.1263125 L86.95425,96.0325625 L85.276125,97.2056875 Z M86.923625,99.7906875 C86.69425,99.9513125 86.463625,100.063812 86.23175,100.130062 C86.0005,100.195687 85.773625,100.212562 85.5505,100.179437 C85.328625,100.146312 85.118,100.063812 84.91925,99.9319375 C84.7205,99.8006875 84.5405,99.6200625 84.379875,99.3906875 C84.2205,99.1613125 84.112375,98.9306875 84.05675,98.6994375 C84.001125,98.4675625 83.996125,98.2406875 84.041125,98.0213125 C84.087375,97.8006875 84.179875,97.5931875 84.32175,97.3981875 C84.462375,97.2031875 84.648,97.0256875 84.877375,96.8650625 L86.663,95.6163125 L85.128625,93.4219375 L85.616125,93.0813125 L89.196125,98.2013125 L86.923625,99.7906875 Z" id="Fill-25" fill="#231F20"></path>
                        <polygon id="Fill-27" fill="#231F20" points="82.867125 102.26125 79.845875 96.793125 80.3665 96.505625 83.388375 101.97375"></polygon>
                        <polygon id="Fill-29" fill="#231F20" points="79.981375 103.723062 77.702625 98.4543125 74.49075 99.8436875 74.2895 99.3780625 78.047625 97.7524375 80.527625 103.486812"></polygon>
                        <polygon id="Fill-31" fill="#231F20" points="74.2110625 105.942875 72.6279375 100.426 69.2635625 101.391 69.1235625 100.9035 73.0598125 99.774125 74.7829375 105.779125"></polygon>
                        <path d="M64.899875,104.050188 L66.54675,107.050813 L67.33425,103.703938 L64.899875,104.050188 Z M66.2755,107.690188 L62.96925,101.850188 L63.60175,101.760188 L64.62925,103.576437 L67.444875,103.175813 L67.916125,101.146438 L68.539875,101.057688 L66.933625,107.596438 L66.2755,107.690188 Z" id="Fill-33" fill="#231F20"></path>
                        <path d="M56.863375,101.834625 L56.924,102.97275 L56.9415,102.973375 C57.049625,102.753375 57.18275,102.564625 57.339625,102.4065 C57.497125,102.248375 57.669625,102.12025 57.85775,102.0215 C58.0465,101.922125 58.247125,101.850875 58.460875,101.80775 C58.674625,101.764625 58.89525,101.744625 59.12275,101.748375 C59.612125,101.7565 60.040875,101.852125 60.408375,102.0365 C60.7765,102.22025 61.08025,102.46275 61.32025,102.764 C61.56025,103.065875 61.738375,103.41275 61.854625,103.80525 C61.970875,104.198375 62.02525,104.61025 62.018375,105.042125 C62.0115,105.474 61.943375,105.884 61.814625,106.273375 C61.685875,106.662125 61.4965,107.004 61.2465,107.300875 C60.9965,107.597125 60.68525,107.8315 60.312125,108.00275 C59.938375,108.17525 59.507125,108.2565 59.017125,108.249 C58.69025,108.244 58.382125,108.19525 58.0915,108.10275 C57.8015,108.010875 57.544,107.87525 57.319625,107.6965 C57.09525,107.51775 56.905875,107.298375 56.75275,107.039625 C56.599625,106.78025 56.4965,106.478375 56.443375,106.133375 L57.038375,106.143375 C57.053375,106.324 57.11025,106.50775 57.209,106.692125 C57.30775,106.87775 57.44275,107.04775 57.612125,107.202125 C57.7815,107.3565 57.98525,107.484 58.22275,107.584 C58.46025,107.684 58.72775,107.7365 59.02525,107.7415 C59.439625,107.748375 59.7965,107.67525 60.0965,107.52275 C60.3965,107.369625 60.643375,107.16525 60.837125,106.909 C61.030875,106.65275 61.175875,106.3615 61.2715,106.0365 C61.367125,105.7115 61.41775,105.3765 61.423375,105.03275 C61.429,104.694 61.389,104.359625 61.304,104.029 C61.219,103.697125 61.083375,103.400875 60.898375,103.138375 C60.713375,102.87525 60.47275,102.66275 60.17775,102.500875 C59.883375,102.339 59.529,102.254 59.114625,102.247125 C58.77025,102.2415 58.462125,102.293375 58.189,102.40275 C57.915875,102.512125 57.684,102.667125 57.494,102.868375 C57.304625,103.069625 57.16025,103.309 57.062125,103.588375 C56.964625,103.8665 56.915875,104.1715 56.915875,104.504 L59.042125,104.539 L59.034,105.0465 L56.38275,105.003375 L56.434625,101.827125 L56.863375,101.834625 Z" id="Fill-35" fill="#231F20"></path>
                        <polygon id="Fill-37" fill="#231F20" points="49.3511875 107.054937 49.4355625 106.554312 53.1024375 107.173687 53.4786875 104.948063 50.0443125 104.367437 50.1293125 103.867437 53.5630625 104.447437 53.9736875 102.014938 50.2636875 101.388063 50.3486875 100.887438 54.6449375 101.613062 53.6049375 107.773062"></polygon>
                        <polygon id="Fill-39" fill="#231F20" points="46.32075 106.260875 44.5195 100.102125 44.502625 100.0965 42.847 105.11525 42.282625 104.929 44.238875 98.995875 44.87075 99.204 46.672 105.36275 46.688875 105.368375 48.343875 100.349625 48.9095 100.535875 46.952625 106.469"></polygon>
                        <path d="M36.35925,100.6975 C36.377375,100.920625 36.433625,101.12875 36.52675,101.3225 C36.619875,101.51625 36.743,101.69 36.894875,101.845625 C37.048,102.000625 37.224875,102.13125 37.42675,102.23625 C37.793625,102.428125 38.1455,102.5225 38.482375,102.520625 C38.81925,102.51875 39.13175,102.44625 39.41925,102.30375 C39.707375,102.161875 39.967375,101.96625 40.198625,101.71875 C40.429875,101.470625 40.624875,101.194375 40.78425,100.889375 C40.941125,100.589375 41.0555,100.271875 41.127375,99.938125 C41.199875,99.604375 41.212375,99.278125 41.16425,98.960625 C41.116125,98.643125 40.99675,98.345 40.8055,98.068125 C40.614875,97.790625 40.336125,97.55625 39.968625,97.364375 C39.709875,97.229375 39.453,97.155 39.198,97.14 C38.942375,97.125 38.698,97.15875 38.46425,97.240625 C38.2305,97.323125 38.011125,97.446875 37.806125,97.6125 C37.601125,97.77875 37.4205,97.979375 37.2655,98.21375 L36.737375,97.93875 C36.952375,97.61625 37.192375,97.350625 37.459875,97.14125 C37.72675,96.931875 38.00925,96.7825 38.3055,96.694375 C38.60175,96.605 38.909875,96.57875 39.2305,96.614375 C39.5505,96.649375 39.873625,96.7525 40.19925,96.9225 C40.633625,97.14875 40.97425,97.4275 41.219875,97.75625 C41.466125,98.085 41.62925,98.43875 41.708625,98.815 C41.788625,99.1925 41.79175,99.5825 41.719875,99.985625 C41.647375,100.38875 41.51175,100.781875 41.31175,101.164375 C41.11175,101.546875 40.867375,101.883125 40.578,102.173125 C40.288625,102.463125 39.966125,102.685 39.609875,102.8375 C39.253625,102.990625 38.8705,103.06 38.45925,103.046875 C38.048625,103.0325 37.626125,102.913125 37.19175,102.68625 C36.928,102.54875 36.691125,102.375625 36.4805,102.1675 C36.2705,101.95875 36.103,101.725 35.978,101.465625 C35.853625,101.20625 35.7805,100.93 35.759875,100.635625 C35.738625,100.3425 35.7855,100.040625 35.9005,99.7325 L36.428,100.0075 C36.363625,100.24375 36.341125,100.474375 36.35925,100.6975" id="Fill-41" fill="#231F20"></path>
                        <polygon id="Fill-43" fill="#231F20" points="33.4075625 100.402125 32.8431875 99.988375 33.0594375 96.218375 29.5350625 97.559625 28.9638125 97.14025 33.1275625 95.63775 34.6494375 93.564 35.1288125 93.915875 33.6069375 95.989625"></polygon>
                        <path d="M119.388125,59.77225 C119.388125,92.69725 92.696875,119.3885 59.771875,119.3885 C26.8475,119.3885 0.15625,92.69725 0.15625,59.77225 C0.15625,26.84725 26.8475,0.156625 59.771875,0.156625 C92.696875,0.156625 119.388125,26.84725 119.388125,59.77225 Z" id="Stroke-45" stroke="#020303" stroke-width="0.7"></path>
                    </g>
                </g>
            </g>
        </g>
    </g>
</svg>